<svg id="final_svg" viewBox="12.106499671936035 399.42462158203125 1056.95751953125 279.72003173828125" xmlns="http://www.w3.org/2000/svg" xmlns:xlink="http://www.w3.org/1999/xlink" xml:space="preserve">
      <g id="png_group" transform="translate(12.106499999999997, 399.424625) scale(0.888)" opacity="1">
      <g height="279.72" width="279.72" transform="rotate(0)">
                  <style type="text/css">.st0{fill:url(#SVGID_1_);}	.st1{fill:url(#SVGID_00000026868961111431762580000010490892665393454476_);}</style>
          <g id="color_index_g">
                          <linearGradient id="SVGID_1_" gradientUnits="userSpaceOnUse" x1="143.0757904" y1="82.7611465" x2="240.3411407" y2="41.4132996" gradientTransform="matrix(0.7071068 0.7071068 -0.7071068 0.7071068 137.7474213 -39.1074524)">
                                  <stop offset="0" style="stop-color:rgba(52, 91, 171, 1)"></stop>
                  <stop offset="0.9880286" style="stop-color:rgba(77, 150, 255, 1)"></stop>
                              </linearGradient>
              <linearGradient id="SVGID_00000049936356186771638270000006122239727895717504_" gradientUnits="userSpaceOnUse" x1="-38.2511902" y1="82.7611465" x2="59.014164" y2="41.4132996" gradientTransform="matrix(-0.7071068 -0.7071068 -0.7071068 0.7071068 225.8899231 49.0350456)">
                                  <stop offset="0" style="stop-color:rgba(52, 91, 171, 1)"></stop>
                  <stop offset="0.9880286" style="stop-color:rgba(77, 150, 255, 1)"></stop>
                              </linearGradient>
              <polygon class="st0" points="315,0 228.816925,315 160.7527313,189.1711426 	"></polygon>
              <polygon style="fill:url(#SVGID_00000049936356186771638270000006122239727895717504_);" points="315,0 0,86.1830673 		125.8288651,154.2472687 	"></polygon>
                      </g>
              </g>
    </g>
    <g id="text_group" transform="rotate(0)" opacity="1">
      <g id="text_layer_1_0" fill="rgba(45, 37, 81, 1)" transform="translate(280.734, 452.172)">
                  <path d="M27.75 38.49C12.56 38.49 2.18 48.50 2.18 63.70C2.18 78.62 12.19 88.63 28.21 88.63C37.22 88.63 44.59 85.45 49.59 79.99L41.31 71.89C38.04 75.17 33.85 76.89 29.57 76.89C23.75 76.89 19.56 73.62 18.02 67.79L52.51 67.79C53.60 49.87 45.05 38.49 27.75 38.49ZM17.75 59.33C18.75 53.42 22.48 49.41 27.94 49.41C33.58 49.41 37.40 53.33 37.40 59.33ZM101.65 48.50L101.65 39.04L58.79 39.04L58.79 50.87L81.99 50.87L57.88 78.62L57.88 88.09L102.47 88.09L102.47 76.26L77.62 76.26ZM111.47 24.39L111.47 88.09L142.69 88.09C157.70 88.09 167.17 81.26 167.17 70.43C167.17 62.15 162.07 55.87 154.06 54.33C160.80 52.42 164.98 47.05 164.98 40.31C164.98 30.58 155.88 24.39 141.60 24.39ZM127.58 36.76L140.69 36.76C145.42 36.76 148.42 39.13 148.42 43.22C148.42 47.32 145.42 49.87 140.69 49.87L127.58 49.87ZM127.58 61.52L140.69 61.52C146.69 61.52 150.42 64.16 150.42 68.43C150.42 72.98 146.69 75.62 140.69 75.62L127.58 75.62ZM199.20 38.49C183.09 38.49 172.35 48.41 172.35 63.52C172.35 78.62 183.09 88.63 199.20 88.63C215.21 88.63 225.95 78.62 225.95 63.52C225.95 48.41 215.21 38.49 199.20 38.49ZM199.20 50.96C205.66 50.96 210.12 56.15 210.12 63.70C210.12 71.34 205.66 76.44 199.20 76.44C192.65 76.44 188.19 71.34 188.19 63.70C188.19 56.15 192.65 50.96 199.20 50.96ZM257.17 38.49C241.06 38.49 230.32 48.41 230.32 63.52C230.32 78.62 241.06 88.63 257.17 88.63C273.18 88.63 283.92 78.62 283.92 63.52C283.92 48.41 273.18 38.49 257.17 38.49ZM257.17 50.96C263.63 50.96 268.09 56.15 268.09 63.70C268.09 71.34 263.63 76.44 257.17 76.44C250.61 76.44 246.16 71.34 246.16 63.70C246.16 56.15 250.61 50.96 257.17 50.96ZM313.86 69.16L324.51 88.09L343.16 88.09L324.60 57.88L342.62 39.04L324.78 39.04L308.58 56.24L308.58 20.57L292.84 20.57L292.84 88.09L308.58 88.09L308.58 74.71ZM357.63 16.65C352.81 16.65 349.35 20.11 349.35 24.93C349.35 29.85 352.81 33.31 357.63 33.31C362.45 33.31 365.91 29.85 365.91 24.93C365.91 20.11 362.45 16.65 357.63 16.65ZM365.36 88.09L365.36 39.04L349.71 39.04L349.71 88.09ZM410.14 38.31C402.86 38.40 397.21 41.31 393.76 47.05L393.76 39.04L378.01 39.04L378.01 88.09L393.76 88.09L393.76 62.15C394.39 56.33 398.03 52.23 403.77 52.23C409.04 52.23 412.41 55.78 412.41 61.52L412.41 88.09L428.06 88.09L428.06 57.15C428.06 45.68 420.97 38.31 410.14 38.31ZM486.12 39.04L470.47 39.04L470.47 45.04C466.92 40.31 461.82 38.49 456.00 38.49C443.72 38.49 435.25 47.77 435.25 61.70C435.25 75.98 443.99 85.45 456.36 85.45C462.46 85.45 467.28 83.08 470.47 78.90L470.47 84.08C470.47 90.18 465.92 94.18 458.37 94.18C453.09 94.18 447.63 92.36 443.17 89.27L437.71 99.92C443.26 103.65 451.00 106.38 459.55 106.38C475.38 106.38 486.12 97.55 486.12 83.63ZM460.28 74.07C454.09 74.07 449.90 69.16 449.90 62.15C449.90 55.05 454.09 50.14 460.28 50.14C466.37 50.14 470.47 54.96 470.47 62.15C470.47 69.16 466.37 74.07 460.28 74.07ZM502.87 73.62C498.41 73.62 495.31 76.71 495.31 81.17C495.31 85.72 498.41 88.82 502.87 88.82C507.32 88.82 510.51 85.72 510.51 81.17C510.51 76.71 507.32 73.62 502.87 73.62ZM591.95 88.09L612.98 24.39L596.41 24.39L584.13 71.25L571.66 24.39L555.83 24.39L543.63 71.25L531.17 24.39L513.88 24.39L534.72 88.09L551.46 88.09L563.47 44.04L575.30 88.09ZM635.63 38.49C619.53 38.49 608.79 48.41 608.79 63.52C608.79 78.62 619.53 88.63 635.63 88.63C651.65 88.63 662.39 78.62 662.39 63.52C662.39 48.41 651.65 38.49 635.63 38.49ZM635.63 50.96C642.10 50.96 646.55 56.15 646.55 63.70C646.55 71.34 642.10 76.44 635.63 76.44C629.08 76.44 624.62 71.34 624.62 63.70C624.62 56.15 629.08 50.96 635.63 50.96ZM686.60 39.04L670.85 39.04L670.85 88.09L686.60 88.09L686.60 62.88C687.32 56.51 692.51 52.42 700.34 52.42C701.06 52.42 701.79 52.42 702.52 52.51L702.52 38.31C695.51 38.40 689.96 41.59 686.60 47.32ZM725.91 88.09L725.91 20.57L710.16 20.57L710.16 88.09ZM788.33 20.57L772.59 20.57L772.59 45.50C769.13 40.95 763.94 38.40 757.48 38.40C743.92 38.40 734.92 48.32 734.92 63.34C734.92 78.53 744.02 88.72 757.85 88.72C764.13 88.72 769.13 86.18 772.59 81.63L772.59 88.09L788.33 88.09ZM761.67 76.53C755.12 76.53 750.75 71.25 750.66 63.70C750.75 56.15 755.12 50.96 761.67 50.96C768.22 50.96 772.59 56.15 772.59 63.70C772.59 71.25 768.22 76.53 761.67 76.53Z"></path>
              </g>
    </g>
    <g id="tagline_group" transform="rotate(0)" opacity="1">
      <g id="text_layer_2_0" fill="rgba(45, 37, 81, 1)" transform="translate(280.734, 575.297)">
                  <path d="M21.66 47.43C30.48 47.43 35.08 44.00 35.08 38.12C35.08 33.66 32.59 30.77 28.91 29.60C31.56 28.18 33.32 25.58 33.32 22.05C33.32 16.61 28.91 13.13 20.68 13.13L4.61 13.13L4.61 47.43ZM10.98 42.43L10.98 32.54L21.27 32.54C26.07 32.54 28.67 34.05 28.67 37.48C28.67 40.91 26.07 42.43 21.27 42.43ZM10.98 27.59L10.98 18.13L19.99 18.13C24.40 18.13 26.90 19.70 26.90 22.88C26.90 26.02 24.40 27.59 19.99 27.59ZM69.43 47.92C80.07 47.92 87.91 40.47 87.91 30.28C87.91 20.09 80.07 12.64 69.43 12.64C58.80 12.64 50.96 20.14 50.96 30.28C50.96 40.43 58.80 47.92 69.43 47.92ZM69.43 42.34C62.52 42.34 57.38 37.29 57.38 30.28C57.38 23.28 62.52 18.23 69.43 18.23C76.34 18.23 81.49 23.28 81.49 30.28C81.49 37.29 76.34 42.34 69.43 42.34ZM122.21 47.92C132.84 47.92 140.68 40.47 140.68 30.28C140.68 20.09 132.84 12.64 122.21 12.64C111.57 12.64 103.73 20.14 103.73 30.28C103.73 40.43 111.57 47.92 122.21 47.92ZM122.21 42.34C115.30 42.34 110.15 37.29 110.15 30.28C110.15 23.28 115.30 18.23 122.21 18.23C129.12 18.23 134.26 23.28 134.26 30.28C134.26 37.29 129.12 42.34 122.21 42.34ZM165.33 47.43L165.33 38.66L170.76 33.08L182.87 47.43L190.32 47.43L175.03 28.47L189.43 13.13L182.28 13.13L165.33 30.72L165.33 13.13L158.96 13.13L158.96 47.43ZM206.19 47.43L212.56 47.43L212.56 13.13L206.19 13.13ZM233.34 47.43L239.66 47.43L239.66 24.21L258.57 47.43L263.82 47.43L263.82 13.13L257.49 13.13L257.49 36.36L238.58 13.13L233.34 13.13ZM307.96 40.57C305.76 41.85 303.36 42.34 300.91 42.34C293.66 42.34 288.51 37.24 288.51 30.28C288.51 23.18 293.66 18.23 300.96 18.23C304.63 18.23 307.72 19.45 310.41 22.15L314.43 18.23C311.20 14.55 306.40 12.64 300.66 12.64C289.93 12.64 282.09 20.04 282.09 30.28C282.09 40.52 289.93 47.92 300.57 47.92C305.42 47.92 310.41 46.45 313.99 43.56L313.99 29.89L307.96 29.89ZM365.00 47.43L365.00 24.99L376.27 43.51L379.11 43.51L390.38 24.70L390.43 47.43L396.46 47.43L396.41 13.13L391.17 13.13L377.79 35.87L364.17 13.13L358.92 13.13L358.92 47.43ZM418.95 47.43L422.33 39.49L439.48 39.49L442.91 47.43L449.57 47.43L434.09 13.13L427.82 13.13L412.38 47.43ZM430.91 19.50L437.37 34.50L424.49 34.50ZM465.45 47.43L480.44 47.43C491.57 47.43 499.16 40.57 499.16 30.28C499.16 19.99 491.57 13.13 480.44 13.13L465.45 13.13ZM471.82 42.04L471.82 18.52L480.15 18.52C487.79 18.52 492.74 23.18 492.74 30.28C492.74 37.39 487.79 42.04 480.15 42.04ZM517.44 47.43L543.16 47.43L543.16 42.09L523.81 42.09L523.81 32.63L540.37 32.63L540.37 27.39L523.81 27.39L523.81 18.47L542.48 18.47L542.48 13.13L517.44 13.13ZM586.82 47.43L612.55 47.43L612.55 42.09L593.19 42.09L593.19 32.63L609.76 32.63L609.76 27.39L593.19 27.39L593.19 18.47L611.86 18.47L611.86 13.13L586.82 13.13ZM632.88 47.43L636.26 39.49L653.41 39.49L656.85 47.43L663.51 47.43L648.02 13.13L641.75 13.13L626.32 47.43ZM644.84 19.50L651.31 34.50L638.42 34.50ZM690.02 47.92C699.43 47.92 703.88 43.22 703.88 37.73C703.88 25.14 683.55 29.89 683.55 22.59C683.55 19.99 685.71 17.93 691.00 17.93C693.99 17.93 697.37 18.82 700.46 20.63L702.46 15.68C699.48 13.72 695.16 12.64 691.05 12.64C681.64 12.64 677.23 17.35 677.23 22.88C677.23 35.62 697.61 30.77 697.61 38.17C697.61 40.72 695.36 42.63 690.02 42.63C685.80 42.63 681.44 41.06 678.70 38.86L676.49 43.81C679.34 46.26 684.68 47.92 690.02 47.92ZM730.15 35.43L730.15 47.43L736.52 47.43L736.52 35.33L749.95 13.13L743.67 13.13L733.53 29.84L723.49 13.13L716.67 13.13ZM765.43 36.06L770.28 36.06L771.50 13.13L764.25 13.13ZM767.88 47.78C770.13 47.78 771.75 46.06 771.75 43.95C771.75 41.85 770.13 40.18 767.88 40.18C765.58 40.18 763.91 41.85 763.91 43.95C763.91 46.06 765.58 47.78 767.88 47.78Z"></path>
              </g>
    </g>
  </svg>